{
    "asset": {
        "version": "2.0",
        "generator": "Open Asset Import Library (assimp v5.0.5eb040c7)"
    },
    "accessors": [
        {
            "bufferView": 0,
            "byteOffset": 0,
            "componentType": 5126,
            "count": 298,
            "type": "VEC3",
            "max": [
                24.917390823364259,
                108.86266326904297,
                -36.47529983520508
            ],
            "min": [
                -20.336759567260743,
                63.6085090637207,
                -77.61071014404297
            ]
        },
        {
            "bufferView": 1,
            "byteOffset": 0,
            "componentType": 5126,
            "count": 298,
            "type": "VEC2",
            "max": [
                1.0,
                2.0
            ],
            "min": [
                0.0,
                1.0
            ]
        },
        {
            "bufferView": 2,
            "byteOffset": 0,
            "componentType": 5125,
            "count": 1296,
            "type": "SCALAR",
            "max": [
                297
            ],
            "min": [
                0
            ]
        },
        {
            "bufferView": 3,
            "byteOffset": 0,
            "componentType": 5126,
            "count": 383,
            "type": "VEC3",
            "max": [
                404.77227783203127,
                472.61383056640627,
                43.59148025512695
            ],
            "min": [
                -404.77227783203127,
                -382.3402099609375,
                -206.7705535888672
            ]
        },
        {
            "bufferView": 4,
            "byteOffset": 0,
            "componentType": 5126,
            "count": 383,
            "type": "VEC2",
            "max": [
                0.0,
                1.0
            ],
            "min": [
                0.0,
                1.0
            ]
        },
        {
            "bufferView": 5,
            "byteOffset": 0,
            "componentType": 5125,
            "count": 2691,
            "type": "SCALAR",
            "max": [
                382
            ],
            "min": [
                0
            ]
        },
        {
            "bufferView": 6,
            "byteOffset": 0,
            "componentType": 5126,
            "count": 546,
            "type": "VEC3",
            "max": [
                103.11145782470703,
                80.20830535888672,
                -14.3084135055542
            ],
            "min": [
                -103.11145782470703,
                52.630008697509769,
                -40.29188537597656
            ]
        },
        {
            "bufferView": 7,
            "byteOffset": 0,
            "componentType": 5126,
            "count": 546,
            "type": "VEC2",
            "max": [
                1.0,
                2.0
            ],
            "min": [
                0.0,
                1.0
            ]
        },
        {
            "bufferView": 8,
            "byteOffset": 0,
            "componentType": 5125,
            "count": 2592,
            "type": "SCALAR",
            "max": [
                545
            ],
            "min": [
                0
            ]
        }
    ],
    "buffers": [
        {
            "byteLength": 50856,
            "uri": "result.bin"
        }
    ],
    "bufferViews": [
        {
            "buffer": 0,
            "byteOffset": 0,
            "byteLength": 3576,
            "target": 34962
        },
        {
            "buffer": 0,
            "byteOffset": 3576,
            "byteLength": 2384,
            "target": 34962
        },
        {
            "buffer": 0,
            "byteOffset": 5960,
            "byteLength": 5184,
            "target": 34963
        },
        {
            "buffer": 0,
            "byteOffset": 11144,
            "byteLength": 4596,
            "target": 34962
        },
        {
            "buffer": 0,
            "byteOffset": 15740,
            "byteLength": 3064,
            "target": 34962
        },
        {
            "buffer": 0,
            "byteOffset": 18804,
            "byteLength": 10764,
            "target": 34963
        },
        {
            "buffer": 0,
            "byteOffset": 29568,
            "byteLength": 6552,
            "target": 34962
        },
        {
            "buffer": 0,
            "byteOffset": 36120,
            "byteLength": 4368,
            "target": 34962
        },
        {
            "buffer": 0,
            "byteOffset": 40488,
            "byteLength": 10368,
            "target": 34963
        }
    ],
    "materials": [
        {
            "name": "DefaultMaterial",
            "pbrMetallicRoughness": {
                "baseColorFactor": [
                    0.6000000238418579,
                    0.6000000238418579,
                    0.6000000238418579,
                    1.0
                ],
                "metallicFactor": 0.0
            }
        },
        {
            "name": "Mat.1",
            "pbrMetallicRoughness": {
                "baseColorFactor": [
                    0.6000000238418579,
                    0.6000000238418579,
                    0.6000000238418579,
                    1.0
                ],
                "metallicFactor": 0.0
            }
        },
        {
            "name": "Mat.3",
            "pbrMetallicRoughness": {
                "baseColorFactor": [
                    0.6000000238418579,
                    0.6000000238418579,
                    0.6000000238418579,
                    1.0
                ],
                "metallicFactor": 0.0
            }
        },
        {
            "name": "Mat.2",
            "pbrMetallicRoughness": {
                "baseColorFactor": [
                    0.6000000238418579,
                    0.6000000238418579,
                    0.6000000238418579,
                    1.0
                ],
                "metallicFactor": 0.0
            }
        }
    ],
    "meshes": [
        {
            "name": "3DPrintNebulion",
            "primitives": [
                {
                    "mode": 4,
                    "material": 1,
                    "indices": 2,
                    "attributes": {
                        "POSITION": 0,
                        "TEXCOORD_0": 1
                    }
                },
                {
                    "mode": 4,
                    "material": 2,
                    "indices": 5,
                    "attributes": {
                        "POSITION": 3,
                        "TEXCOORD_0": 4
                    }
                },
                {
                    "mode": 4,
                    "material": 3,
                    "indices": 8,
                    "attributes": {
                        "POSITION": 6,
                        "TEXCOORD_0": 7
                    }
                }
            ]
        }
    ],
    "nodes": [
        {
            "name": "input.obj",
            "children": [
                1
            ]
        },
        {
            "name": "3DPrintNebulion",
            "mesh": 0
        }
    ],
    "scenes": [
        {
            "nodes": [
                0
            ]
        }
    ],
    "scene": 0
}